<?xml version="1.0" encoding="UTF-8" standalone="no"?>
<!-- Generator: Adobe Illustrator 18.0.0, SVG Export Plug-In . SVG Version: 6.00 Build 0)  -->

<svg
   version="1.1"
   id="Layer_1"
   x="0px"
   y="0px"
   viewBox="0 0 365 560"
   enable-background="new 0 0 365 560"
   xml:space="preserve"
   sodipodi:docname="marker.svg"
   inkscape:version="1.4.2 (1:1.4.2+202505120737+ebf0e940d0)"
   xmlns:inkscape="http://www.inkscape.org/namespaces/inkscape"
   xmlns:sodipodi="http://sodipodi.sourceforge.net/DTD/sodipodi-0.dtd"
   xmlns="http://www.w3.org/2000/svg"
   xmlns:svg="http://www.w3.org/2000/svg"><defs
   id="defs1"><filter
     style="color-interpolation-filters:sRGB;"
     inkscape:label="Blur"
     id="filter1"
     x="-0.1698821"
     y="-0.75749514"
     width="1.3397642"
     height="2.5149903"><feGaussianBlur
       stdDeviation="24.1945 23.2657"
       result="blur"
       id="feGaussianBlur1" /></filter></defs><sodipodi:namedview
   id="namedview1"
   pagecolor="#505050"
   bordercolor="#eeeeee"
   borderopacity="1"
   inkscape:showpageshadow="0"
   inkscape:pageopacity="0"
   inkscape:pagecheckerboard="0"
   inkscape:deskcolor="#505050"
   inkscape:zoom="1.0534981"
   inkscape:cx="110.10936"
   inkscape:cy="199.81051"
   inkscape:window-width="1920"
   inkscape:window-height="1011"
   inkscape:window-x="0"
   inkscape:window-y="32"
   inkscape:window-maximized="1"
   inkscape:current-layer="path1" />
<g
   id="g1">
	<path
   fill="#00AEEF"
   d="m 182.5,546.20756 c 0,0.0135 0.19488,0.0406 0.19488,0.0406 0,0 170.70835,-36.43019 170.70835,-48.40205 0,-17.61921 -86.52342,-25.28445 -170.90323,-25.31153 -84.379835,0.0271 -170.903232,7.69232 -170.903232,25.31153 0,11.97186 170.805792,48.40205 170.805792,48.40205 z m -59.14383,-49.36358 c 0,-4.55039 26.50268,-8.23404 59.24125,-8.23404 32.73859,0 59.24126,3.68365 59.24126,8.23404 0,4.55039 -26.60011,8.23404 -59.33868,8.23404 -32.64115,0 -59.14383,-3.68365 -59.14383,-8.23404 z"
   id="path1-5"
   style="fill:#000000;fill-opacity:1;stroke:none;stroke-width:21.0547;stroke-linecap:round;stroke-linejoin:round;stroke-dasharray:none;stroke-opacity:1;paint-order:stroke markers fill;filter:url(#filter1);opacity:0.21" /><g
   id="path1"
   style="opacity:1"><path
     style="baseline-shift:baseline;display:inline;overflow:visible;vector-effect:none;fill:#ffffff;stroke-linecap:round;stroke-linejoin:round;paint-order:stroke markers fill;enable-background:accumulate;stop-color:#000000;stop-opacity:1"
     d="M 182.44141,13.751953 C 138.59501,13.85321 93.471571,28.209303 58.880859,60.089844 24.290147,91.970385 1.7949219,141.2803 1.7949219,204.625 c 0,28.00874 11.2752001,58.0473 26.3574221,92.59961 15.082221,34.55231 34.777184,72.16324 54.402343,107.22656 39.250323,70.12664 78.388673,130.16406 78.388673,130.16406 a 25.626063,25.626063 0 0 0 0.80469,0.69532 c 0.24598,0.32861 0.63426,0.97588 0.83007,1.2207 1.08347,1.35464 1.97461,2.20703 1.97461,2.20703 a 25.626063,25.626063 0 0 0 4.30274,2.71875 25.626063,25.626063 0 0 0 4.18359,2.64063 25.626063,25.626063 0 0 0 12.54883,1.92578 25.626063,25.626063 0 0 0 0.56641,-0.19141 25.626063,25.626063 0 0 0 11.61328,-5.02344 25.626063,25.626063 0 0 0 1.95117,-1.89453 25.626063,25.626063 0 0 0 4.42969,-4.30469 c 0,0 39.1159,-60.03756 78.34375,-130.16406 19.61392,-35.06325 39.29959,-72.67267 54.37304,-107.22461 15.07346,-34.55194 26.33985,-64.59179 26.33985,-92.5957 0,-63.3447 -22.49523,-112.654616 -57.08594,-144.535156 C 271.52843,28.209303 226.40498,13.85321 182.55859,13.751953 a 25.626063,25.626063 0 0 0 -0.11718,0 z M 182.5,65 c 32.70232,0.08829 65.09455,10.841628 88.88867,32.771484 23.80836,21.942976 40.57031,55.168396 40.57031,106.853516 0,11.07617 -8.09505,40.07786 -22.0664,72.10352 -13.97135,32.02565 -33.01252,68.53042 -52.125,102.69726 -21.19874,37.89638 -40.51906,69.72951 -55.22852,93.38086 C 167.82098,449.15516 148.48738,417.3238 127.27344,379.42187 108.15008,345.25511 89.098304,308.74989 75.119141,276.72461 61.139978,244.69933 53.041016,215.69634 53.041016,204.625 c 0,-51.68512 16.761956,-84.91054 40.570312,-106.853516 C 117.40544,75.841629 149.79767,65.08829 182.5,65 Z m 0.0879,53.70313 c -43.53647,0 -79.38086,35.84241 -79.38086,79.3789 0,43.53651 35.80362,79.38086 79.29297,79.38086 43.53648,0 79.46875,-35.79352 79.46875,-79.38086 0,-43.53648 -35.84438,-79.3789 -79.38086,-79.3789 z m 0,51.24609 c 15.87938,0 28.13477,12.25345 28.13477,28.13281 0,15.82856 -12.34332,28.13477 -28.22266,28.13477 -15.74967,0 -28.04492,-12.25537 -28.04492,-28.13477 0,-15.87935 12.25346,-28.13281 28.13281,-28.13281 z m 19.82617,334.36523 c 0.0979,0.11779 0.0829,0.0787 0.18555,0.20703 0.49752,0.62205 1.14819,1.40866 2.17383,3.20313 0.13892,0.24307 0.38102,0.75114 0.55859,1.02734 a 25.626063,25.626063 0 0 0 -1.76758,-2.07422 l 0.31446,-0.041 c 0,0 -1.39425,-2.21363 -1.46485,-2.32227 z m 2.92774,4.45703 c 1.13354,1.76337 2.78125,4.23623 2.78125,11.58985 a 25.626063,25.626063 0 0 0 -2.78125,-11.58985 z"
     id="path2" /><path
     style="baseline-shift:baseline;display:inline;overflow:visible;vector-effect:none;fill:#ffffff;stroke-linecap:round;stroke-linejoin:round;paint-order:stroke markers fill;enable-background:accumulate;stop-color:#000000;stop-opacity:1"
     d="m 182.5,520.36089 c 0,0.0883 -0.17684,0.26525 -0.17684,0.26525 0,0 -154.905632,-237.84027 -154.905632,-316.00044 0,-115.029813 78.513822,-165.073535 155.082472,-165.25036 76.56867,0.176825 155.08247,50.220547 155.08247,165.25036 0,78.16017 -154.99405,316.00044 -154.99405,316.00044 z m 53.6688,-322.27802 c 0,-29.70792 -24.04929,-53.75719 -53.7572,-53.75719 -29.70793,0 -53.75721,24.04927 -53.75721,53.75719 0,29.70795 24.1377,53.75724 53.84561,53.75724 29.61951,0 53.6688,-24.04929 53.6688,-53.75724 z"
     id="path3" /></g>
</g>
</svg>
